<svg width="29" height="21" viewBox="0 0 29 21" fill="none" xmlns="http://www.w3.org/2000/svg">
<path d="M28.1212 10.746H28.092V9.22965C28.092 8.59049 27.7111 8.04689 27.1839 7.85312V1.31216C27.1839 1.05647 26.9937 0.849182 26.7591 0.849182H2.24093C2.00633 0.849182 1.81613 1.05647 1.81613 1.31216V7.85306C1.28892 8.04683 0.908064 8.59049 0.908064 9.22959V10.7459H0.878838C0.39422 10.746 0 11.1757 0 11.7037V15.6625C0 16.1906 0.39422 16.6203 0.878838 16.6203H0.908064V20.1161C0.908064 20.3718 1.09826 20.579 1.33287 20.579H2.24093C2.43583 20.579 2.60576 20.4344 2.65305 20.2284L3.48069 16.6203H25.5193L26.3469 20.2284C26.3942 20.4344 26.5641 20.579 26.7591 20.579H27.6671C27.9017 20.579 28.0919 20.3718 28.0919 20.1161V16.6203H28.1212C28.6058 16.6203 29 16.1906 29 15.6625V11.7037C29.0001 11.1757 28.6058 10.746 28.1212 10.746ZM1.90925 19.6531H1.75768V16.6204H2.60496L1.90925 19.6531ZM27.2424 19.6531H27.0908L26.3952 16.6204H27.2424V19.6531ZM28.1212 15.6944H0.878838C0.862695 15.6944 0.849611 15.6801 0.849611 15.6625V11.7037C0.849611 11.6862 0.862695 11.6719 0.878838 11.6719H24.9429C25.1775 11.6719 25.3677 11.4646 25.3677 11.2089C25.3677 10.9532 25.1775 10.7459 24.9429 10.7459H1.75768V9.22959C1.75768 8.93915 1.9745 8.7029 2.24093 8.7029H3.14906C3.38366 8.7029 3.57386 8.49561 3.57386 8.23992C3.57386 7.98424 3.38366 7.77695 3.14906 7.77695H2.66574V1.77514H26.3343V7.77695H24.0056V5.27087C24.0056 4.46986 23.4076 3.81823 22.6727 3.81823H16.3162C15.5812 3.81823 14.9833 4.46992 14.9833 5.27087V7.77695H14.0168V5.27087C14.0168 4.46986 13.4188 3.81823 12.6839 3.81823H6.32728C5.59231 3.81823 4.99441 4.46992 4.99441 5.27087V7.77695H4.96518C4.73058 7.77695 4.54038 7.98424 4.54038 8.23992C4.54038 8.49561 4.73058 8.7029 4.96518 8.7029H26.7591C27.0256 8.7029 27.2423 8.93921 27.2423 9.22959V10.7459H26.7591C26.5245 10.7459 26.3343 10.9532 26.3343 11.2089C26.3343 11.4646 26.5245 11.6719 26.7591 11.6719H28.1212C28.1373 11.6719 28.1504 11.6862 28.1504 11.7037V15.6625H28.1504C28.1504 15.6801 28.1374 15.6944 28.1212 15.6944ZM23.156 5.27087V7.77695H15.8329V5.27087C15.8329 4.98049 16.0497 4.74419 16.3162 4.74419H22.6727C22.9392 4.74413 23.156 4.98043 23.156 5.27087ZM13.1671 5.27087V7.77695H5.84402V5.27087C5.84402 4.98049 6.06084 4.74419 6.32728 4.74419H12.6838C12.9503 4.74413 13.1671 4.98043 13.1671 5.27087Z" fill="white"/>
</svg>
