<svg width="41" height="41" viewBox="0 0 41 41" fill="none" xmlns="http://www.w3.org/2000/svg">
<g clip-path="url(#clip0)">
<path d="M20.5001 7.47104C19.3773 7.47104 18.2967 7.80881 17.3751 8.44783C17.1026 8.63674 17.0338 9.01238 17.2212 9.28689C17.4088 9.5614 17.7816 9.63075 18.054 9.44192C18.7751 8.94199 19.6209 8.67774 20.5001 8.67774C22.8828 8.67774 24.8211 10.6307 24.8211 13.0312C24.8211 15.4317 22.8828 17.3847 20.5001 17.3847C18.1175 17.3847 16.1791 15.4317 16.1791 13.0312C16.1791 12.3231 16.3423 11.648 16.6641 11.0248C16.8168 10.7292 16.7027 10.3649 16.4093 10.2112C16.1158 10.0575 15.7544 10.1722 15.6017 10.4679C15.196 11.2536 14.9814 12.14 14.9814 13.0312C14.9815 16.0971 17.4571 18.5914 20.5001 18.5914C23.5431 18.5914 26.0187 16.0971 26.0187 13.0312C26.0187 9.96531 23.5431 7.47104 20.5001 7.47104Z" fill="black"/>
<path d="M40.9545 40.1649L35.0444 25.8577C34.9515 25.6328 34.7335 25.4862 34.4916 25.4862H28.6021C29.7476 23.9249 30.7011 22.3697 31.4458 20.8427C32.7655 18.1365 33.4345 15.5084 33.4345 13.0313C33.4344 5.84578 27.6323 0 20.5005 0C13.3686 0 7.56647 5.84578 7.56647 13.0312C7.56647 15.5083 8.23552 18.1365 9.55521 20.8426C10.2998 22.3696 11.2533 23.9249 12.3989 25.4861H6.50936C6.26752 25.4861 6.04939 25.6328 5.95658 25.8576L1.92929 35.6068C1.80221 35.9145 1.94667 36.2676 2.252 36.3956C2.32728 36.4271 2.40511 36.4421 2.48183 36.4421C2.71646 36.4421 2.93915 36.3023 3.03485 36.0705L3.60949 34.6794H7.68595L5.57349 39.7933H1.49711L2.10947 38.3108C2.23655 38.0032 2.09209 37.65 1.78675 37.522C1.48125 37.3938 1.13083 37.5396 1.00383 37.8472L0.0464916 40.1649C-0.0304635 40.351 -0.00996347 40.5637 0.101185 40.7314C0.212173 40.8992 0.399076 41 0.599271 41H40.4016C40.6018 41 40.7887 40.8992 40.8998 40.7314C41.0109 40.5637 41.0315 40.351 40.9545 40.1649ZM8.76412 13.0312C8.76412 6.51107 14.029 1.20662 20.5005 1.20662C26.9719 1.20662 32.2368 6.51115 32.2368 13.0312C32.2368 15.7653 31.2939 20.1344 26.932 25.702C26.9276 25.7072 26.9237 25.7128 26.9195 25.7181C26.6967 26.0022 26.4653 26.2892 26.2244 26.5795C23.8275 29.4673 21.4019 31.576 20.5004 32.3252C19.6015 31.5786 17.1874 29.4804 14.7922 26.5982C14.5452 26.301 14.3083 26.0072 14.0803 25.7165C14.0767 25.7119 14.0732 25.7071 14.0694 25.7025C9.70768 20.1352 8.76412 15.7663 8.76412 13.0312ZM6.90871 26.6928H10.9852L9.49836 30.2922H5.4219L6.90871 26.6928ZM10.4104 39.7934L14.1533 30.7327L24.8048 39.7934H10.4104ZM26.6613 39.7934L14.301 29.2791C14.1551 29.1549 13.9591 29.1084 13.7738 29.1537C13.5883 29.199 13.4352 29.3307 13.362 29.5082L9.11326 39.7933H6.87075L9.13664 34.3078C9.2136 34.1216 9.1931 33.909 9.08195 33.7412C8.97096 33.5735 8.78398 33.4727 8.58378 33.4727H4.10814L4.92349 31.4987H9.89779C10.1396 31.4987 10.3578 31.3521 10.4506 31.1272L12.2824 26.6928H13.3217C13.5021 26.9194 13.6855 27.1461 13.8737 27.3727C16.9636 31.0907 20.006 33.4778 20.134 33.5776C20.242 33.6618 20.3712 33.7038 20.5005 33.7038C20.6297 33.7038 20.759 33.6617 20.8669 33.5776C20.9373 33.5228 21.8884 32.7761 23.243 31.4988H30.0241C30.3549 31.4988 30.623 31.2287 30.623 30.8955C30.623 30.5623 30.3549 30.2922 30.0241 30.2922H24.4772C25.3075 29.4511 26.2149 28.4705 27.1272 27.3728C27.3155 27.1462 27.499 26.9195 27.6793 26.6928H34.0922L35.579 30.2922H32.4194C32.0886 30.2922 31.8205 30.5623 31.8205 30.8955C31.8205 31.2287 32.0886 31.4988 32.4194 31.4988H36.0774L36.8928 33.4727H24.5551C24.3052 33.4727 24.0816 33.629 23.9941 33.865C23.9067 34.1009 23.9738 34.3666 24.1626 34.5317L30.1791 39.7934H26.6613ZM32.0062 39.7934L26.1585 34.6794H37.3913L39.5039 39.7934H32.0062Z" fill="black"/>
</g>
<defs>
<clipPath id="clip0">
<rect width="41" height="41" fill="white"/>
</clipPath>
</defs>
</svg>
