<svg width="39" height="40" viewBox="0 0 39 40" fill="none" xmlns="http://www.w3.org/2000/svg">
<g clip-path="url(#clip0)">
<path d="M34.2174 30.6642L28.7897 25.0973C28.2094 24.5022 27.4658 24.1955 26.6938 24.2347C25.9133 24.274 25.147 24.6576 24.4778 25.344C22.4698 27.4035 21.1286 28.4335 19.9934 28.7881C18.8842 29.1343 17.8768 28.8625 16.5164 27.8497C16.1758 27.5962 15.6996 27.6738 15.4525 28.023C15.2054 28.3722 15.281 28.8607 15.6214 29.1141C17.3703 30.4163 18.8557 30.7766 20.4372 30.2827C21.3479 29.9983 22.2898 29.4331 23.443 28.4527L30.7364 35.9331C26.384 38.6353 17.977 41.3397 8.31509 31.4741C-1.30618 21.562 1.33051 12.9394 3.96521 8.47547L11.2586 15.9559C10.3027 17.1387 9.75153 18.1048 9.47419 19.039C8.99271 20.6611 9.34417 22.1845 10.6139 23.9784C10.861 24.3276 11.3373 24.4051 11.6778 24.1517C12.0183 23.8982 12.0938 23.4097 11.8467 23.0606C10.859 21.665 10.5938 20.6318 10.9316 19.4941C11.2772 18.3298 12.2814 16.9542 14.2895 14.8946C15.651 13.4983 15.7477 11.7211 14.5301 10.4723L9.10255 4.90539C8.96605 4.76024 8.13959 3.94961 6.81595 4.07563C5.45194 4.20547 4.13211 5.285 2.8931 7.2843C1.49115 9.54649 -0.146848 13.1891 0.0105233 17.6952C0.189451 22.815 2.62032 27.8219 7.23794 32.5791C11.8738 37.3127 16.7555 39.8059 21.7474 39.9894C21.9453 39.9966 22.1407 40.0002 22.3352 40.0002C26.4573 40 29.7917 38.406 31.898 37.0329C33.8473 35.7622 34.8998 34.4085 35.0264 33.0095C35.1492 31.6522 34.3589 30.8042 34.2174 30.6642ZM6.93318 5.63391C7.55299 5.56446 7.95555 5.94032 8.00438 5.98868C8.01093 5.99625 8.00872 5.99329 8.01893 6.00383L13.453 11.5771C14.062 12.2019 13.9744 13.0083 13.2124 13.7898C12.8724 14.1384 12.5595 14.4691 12.2711 14.7846L4.84043 7.16329C5.73278 6.01594 6.45268 5.68766 6.93318 5.63391ZM33.5095 32.8651C33.4645 33.3625 33.1493 34.1088 32.016 35.0358L24.5851 27.4143C24.8928 27.1185 25.2152 26.7975 25.5551 26.4488C25.9525 26.0413 26.3722 25.8153 26.7686 25.7953C27.1993 25.774 27.5198 26.0046 27.7125 26.2022L33.1465 31.7756C33.1527 31.7819 33.1589 31.788 33.1652 31.7941C33.1692 31.798 33.5686 32.2123 33.5095 32.8651Z" fill="black"/>
<path d="M33.556 5.58375C30.0452 1.98305 25.3775 0 20.413 0C19.0661 0 17.9702 1.12391 17.9702 2.50539C17.9702 3.88695 19.0661 5.01086 20.413 5.01086C24.073 5.01086 27.5138 6.47258 30.1015 9.12672C32.6894 11.7809 34.1145 15.3099 34.1145 19.0637C34.1145 20.4452 35.2103 21.5691 36.5573 21.5691C37.9042 21.5691 39 20.4452 39 19.0637C39 13.9717 37.0666 9.18445 33.556 5.58375ZM36.5573 20.0066C36.0504 20.0066 35.638 19.5836 35.638 19.0637C35.638 14.8925 34.0544 10.9712 31.1788 8.02188C28.3033 5.07258 24.4799 3.44836 20.413 3.44836C19.9061 3.44836 19.4937 3.02531 19.4937 2.50539C19.4937 1.98547 19.906 1.5625 20.413 1.5625C24.9707 1.5625 29.2558 3.38297 32.4787 6.68867C35.7017 9.99422 37.4766 14.3891 37.4766 19.0637C37.4766 19.5836 37.0642 20.0066 36.5573 20.0066Z" fill="black"/>
<path d="M24.7525 14.613C25.9114 15.8017 26.5498 17.3824 26.5498 19.0638C26.5498 20.4452 27.6457 21.5691 28.9925 21.5691C30.3395 21.5691 31.4353 20.4452 31.4353 19.0638C31.4353 16.0442 30.2887 13.2053 28.2068 11.0701C26.1249 8.93477 23.3569 7.75883 20.413 7.75883C19.066 7.75883 17.9702 8.88274 17.9702 10.2642C17.9702 11.6458 19.066 12.7697 20.413 12.7697C22.0524 12.7697 23.5935 13.4243 24.7525 14.613ZM19.4937 10.2642C19.4937 9.7443 19.9062 9.32133 20.413 9.32133C22.9502 9.32133 25.3355 10.3348 27.1297 12.1749C28.9239 14.0151 29.9119 16.4616 29.9119 19.0638C29.9119 19.5837 29.4995 20.0066 28.9926 20.0066C28.4857 20.0066 28.0733 19.5836 28.0733 19.0638C28.0733 16.965 27.2765 14.992 25.8299 13.5081C24.3831 12.0243 22.4594 11.2072 20.4131 11.2072C19.9061 11.2072 19.4937 10.7841 19.4937 10.2642Z" fill="black"/>
<path d="M13.5031 25.3698C13.0824 25.3698 12.7417 25.7195 12.7417 26.151C12.7417 26.5825 13.0829 26.9323 13.5036 26.9323C13.9243 26.9323 14.2654 26.5825 14.2654 26.151C14.2654 25.7195 13.9243 25.3698 13.5036 25.3698H13.5031Z" fill="black"/>
</g>
<defs>
<clipPath id="clip0">
<rect width="39" height="40" fill="white"/>
</clipPath>
</defs>
</svg>
