<svg width="1006" height="578" viewBox="0 0 1006 578" fill="none" xmlns="http://www.w3.org/2000/svg">
<path d="M239.368 -288.444L509.492 576.999" stroke="white" stroke-width="0.3" stroke-miterlimit="2.56141" stroke-dasharray="15 5"/>
<path d="M200.03 -288.444L470.153 576.999" stroke="white" stroke-width="0.3" stroke-miterlimit="2.56141" stroke-dasharray="15 5"/>
<path d="M160.692 -288.444L430.815 576.999" stroke="white" stroke-width="0.3" stroke-miterlimit="2.56141" stroke-dasharray="15 5"/>
<path d="M121.353 -288.444L391.477 576.999" stroke="white" stroke-width="0.3" stroke-miterlimit="2.56141" stroke-dasharray="15 5"/>
<path d="M82.0151 -288.444L352.138 576.999" stroke="white" stroke-width="0.3" stroke-miterlimit="2.56141" stroke-dasharray="15 5"/>
<path d="M42.6768 -288.444L312.8 576.999" stroke="white" stroke-width="0.3" stroke-miterlimit="2.56141" stroke-dasharray="15 5"/>
<path d="M3.33838 -288.444L273.462 576.999" stroke="white" stroke-width="0.3" stroke-miterlimit="2.56141" stroke-dasharray="15 5"/>
<path d="M-36 -288.444L234.123 576.999" stroke="white" stroke-width="0.3" stroke-miterlimit="2.56141" stroke-dasharray="15 5"/>
<path d="M286.574 577L493.756 -295" stroke="white" stroke-width="0.3" stroke-miterlimit="2.56141" stroke-dasharray="15 5"/>
<path d="M247.236 577L454.418 -295" stroke="white" stroke-width="0.3" stroke-miterlimit="2.56141" stroke-dasharray="15 5"/>
<path d="M207.898 577L415.08 -295" stroke="white" stroke-width="0.3" stroke-miterlimit="2.56141" stroke-dasharray="15 5"/>
<path d="M168.559 577L375.741 -295" stroke="white" stroke-width="0.3" stroke-miterlimit="2.56141" stroke-dasharray="15 5"/>
<path d="M129.221 577L336.403 -295" stroke="white" stroke-width="0.3" stroke-miterlimit="2.56141" stroke-dasharray="15 5"/>
<path d="M89.8828 577L297.065 -295" stroke="white" stroke-width="0.3" stroke-miterlimit="2.56141" stroke-dasharray="15 5"/>
<path d="M50.5444 577L257.726 -295" stroke="white" stroke-width="0.3" stroke-miterlimit="2.56141" stroke-dasharray="15 5"/>
<path d="M325.913 577L533.095 -295" stroke="white" stroke-width="0.3" stroke-miterlimit="2.56141" stroke-dasharray="15 5"/>
<path d="M365.251 577L572.433 -295" stroke="white" stroke-width="0.3" stroke-miterlimit="2.56141" stroke-dasharray="15 5"/>
<path d="M404.589 577L611.771 -295" stroke="white" stroke-width="0.3" stroke-miterlimit="2.56141" stroke-dasharray="15 5"/>
<path d="M443.928 577L651.11 -295" stroke="white" stroke-width="0.3" stroke-miterlimit="2.56141" stroke-dasharray="15 5"/>
<path d="M483.266 577L690.448 -295" stroke="white" stroke-width="0.3" stroke-miterlimit="2.56141" stroke-dasharray="15 5"/>
<path d="M522.604 577L729.786 -295" stroke="white" stroke-width="0.3" stroke-miterlimit="2.56141" stroke-dasharray="15 5"/>
<path d="M561.943 577L769.125 -295" stroke="white" stroke-width="0.3" stroke-miterlimit="2.56141" stroke-dasharray="15 5"/>
<path d="M601.281 577L808.463 -295" stroke="white" stroke-width="0.3" stroke-miterlimit="2.56141" stroke-dasharray="15 5"/>
<path d="M640.62 577L847.802 -295" stroke="white" stroke-width="0.3" stroke-miterlimit="2.56141" stroke-dasharray="15 5"/>
<path d="M679.958 577L887.14 -295" stroke="white" stroke-width="0.3" stroke-miterlimit="2.56141" stroke-dasharray="15 5"/>
<path d="M719.296 577L926.478 -295" stroke="white" stroke-width="0.3" stroke-miterlimit="2.56141" stroke-dasharray="15 5"/>
<path d="M758.635 577L965.816 -295" stroke="white" stroke-width="0.3" stroke-miterlimit="2.56141" stroke-dasharray="15 5"/>
<path d="M797.973 577L1005.15 -295" stroke="white" stroke-width="0.3" stroke-miterlimit="2.56141" stroke-dasharray="15 5"/>
<path d="M278.707 -288.444L548.83 576.999" stroke="white" stroke-width="0.3" stroke-miterlimit="2.56141" stroke-dasharray="15 5"/>
<path d="M318.045 -288.444L588.169 576.999" stroke="white" stroke-width="0.3" stroke-miterlimit="2.56141" stroke-dasharray="15 5"/>
<path d="M357.383 -288.444L627.507 576.999" stroke="white" stroke-width="0.3" stroke-miterlimit="2.56141" stroke-dasharray="15 5"/>
<path d="M396.722 -288.444L666.845 576.999" stroke="white" stroke-width="0.3" stroke-miterlimit="2.56141" stroke-dasharray="15 5"/>
<path d="M436.06 -288.444L706.184 576.999" stroke="white" stroke-width="0.3" stroke-miterlimit="2.56141" stroke-dasharray="15 5"/>
<path d="M475.398 -288.444L745.522 576.999" stroke="white" stroke-width="0.3" stroke-miterlimit="2.56141" stroke-dasharray="15 5"/>
<path d="M514.737 -288.444L784.86 576.999" stroke="white" stroke-width="0.3" stroke-miterlimit="2.56141" stroke-dasharray="15 5"/>
<path d="M554.075 -288.444L824.199 576.999" stroke="white" stroke-width="0.3" stroke-miterlimit="2.56141" stroke-dasharray="15 5"/>
</svg>
