<svg width="16" height="164" viewBox="0 0 16 164" fill="none" xmlns="http://www.w3.org/2000/svg">
<path d="M7.35356 0.645958C7.1583 0.450699 6.84171 0.450699 6.64645 0.645958L3.46447 3.82794C3.26921 4.0232 3.26921 4.33978 3.46447 4.53505C3.65973 4.73031 3.97631 4.73031 4.17158 4.53505L7 1.70662L9.82843 4.53505C10.0237 4.73031 10.3403 4.73031 10.5355 4.53505C10.7308 4.33978 10.7308 4.0232 10.5355 3.82794L7.35356 0.645958ZM7.5 95.9995L7.5 0.999512L6.5 0.999512L6.5 95.9995L7.5 95.9995Z" fill="#B98B4B"/>
<path d="M2.86 108.954C2.86 108.431 3.00933 108.02 3.308 107.722C3.60667 107.423 4.064 107.274 4.68 107.274H9.02V106.294H9.58V107.274H10.84L11.68 107.974V108.534H9.58V110.214H9.02V108.534H4.68C3.84 108.534 3.42 108.86 3.42 109.514C3.42 109.738 3.44333 109.924 3.49 110.074C3.53667 110.232 3.60667 110.396 3.7 110.564L3.42 110.704C3.26133 110.489 3.126 110.251 3.014 109.99C2.91133 109.728 2.86 109.383 2.86 108.954ZM2.86 114.44C2.86 113.805 3.00933 113.255 3.308 112.788C3.616 112.321 4.03133 111.967 4.554 111.724C5.07667 111.481 5.65533 111.36 6.29 111.36C6.92467 111.36 7.50333 111.481 8.026 111.724C8.54867 111.967 8.95933 112.321 9.258 112.788C9.566 113.255 9.72 113.805 9.72 114.44C9.72 115.075 9.566 115.625 9.258 116.092C8.95933 116.559 8.54867 116.913 8.026 117.156C7.50333 117.399 6.92467 117.52 6.29 117.52C5.65533 117.52 5.07667 117.399 4.554 117.156C4.03133 116.913 3.616 116.559 3.308 116.092C3.00933 115.625 2.86 115.075 2.86 114.44ZM3.42 114.44C3.42 114.785 3.546 115.089 3.798 115.35C4.05 115.621 4.39533 115.826 4.834 115.966C5.27267 116.115 5.758 116.19 6.29 116.19C6.822 116.19 7.30733 116.115 7.746 115.966C8.18467 115.826 8.53 115.621 8.782 115.35C9.034 115.089 9.16 114.785 9.16 114.44C9.16 114.095 9.034 113.787 8.782 113.516C8.53 113.255 8.18467 113.049 7.746 112.9C7.30733 112.76 6.822 112.69 6.29 112.69C5.758 112.69 5.27267 112.76 4.834 112.9C4.39533 113.049 4.05 113.255 3.798 113.516C3.546 113.787 3.42 114.095 3.42 114.44ZM2.86 124.608C2.86 124.085 3.00933 123.674 3.308 123.376C3.60667 123.077 4.064 122.928 4.68 122.928H9.02V121.948H9.58V122.928H10.84L11.68 123.628V124.188H9.58V125.868H9.02V124.188H4.68C3.84 124.188 3.42 124.514 3.42 125.168C3.42 125.392 3.44333 125.578 3.49 125.728C3.53667 125.886 3.60667 126.05 3.7 126.218L3.42 126.358C3.26133 126.143 3.126 125.905 3.014 125.644C2.91133 125.382 2.86 125.037 2.86 124.608ZM10.56 127.392C11.036 127.392 11.386 127.327 11.61 127.196C11.8433 127.066 11.96 126.804 11.96 126.412V126.132H12.24V127.392C12.24 127.738 12.1933 127.994 12.1 128.162C12.016 128.34 11.8573 128.466 11.624 128.54C11.3907 128.615 11.036 128.652 10.56 128.652H9.02C9.216 128.848 9.37933 129.1 9.51 129.408C9.65 129.726 9.72 130.08 9.72 130.472C9.72 131.172 9.53333 131.742 9.16 132.18C8.78667 132.628 8.13333 132.852 7.2 132.852H3V131.592H7.2C7.85333 131.592 8.32933 131.443 8.628 131.144C8.936 130.855 9.09 130.491 9.09 130.052C9.09 129.558 8.84267 129.091 8.348 128.652H3V127.392H10.56ZM2.86 137.364C2.86 136.73 3.00933 136.193 3.308 135.754C3.616 135.316 4.02667 134.984 4.54 134.76C5.06267 134.536 5.646 134.424 6.29 134.424C6.92467 134.424 7.50333 134.536 8.026 134.76C8.54867 134.984 8.95933 135.306 9.258 135.726C9.566 136.156 9.72 136.655 9.72 137.224C9.72 138.167 9.454 138.867 8.922 139.324C8.39933 139.791 7.63867 140.024 6.64 140.024L6.08 139.996V135.754C5.296 135.754 4.65667 135.922 4.162 136.258C3.66733 136.594 3.42 137.056 3.42 137.644C3.42 138.083 3.51333 138.452 3.7 138.75C3.88667 139.058 4.16667 139.343 4.54 139.604L4.33 139.884C3.81667 139.576 3.44333 139.217 3.21 138.806C2.97667 138.396 2.86 137.915 2.86 137.364ZM6.64 138.694C7.46133 138.694 8.08667 138.573 8.516 138.33C8.94533 138.088 9.16 137.719 9.16 137.224C9.16 136.944 9.048 136.692 8.824 136.468C8.60933 136.244 8.31067 136.067 7.928 135.936C7.54533 135.815 7.116 135.754 6.64 135.754V138.694ZM2.86 147.084C2.86 146.562 3.00933 146.151 3.308 145.852C3.60667 145.554 4.064 145.404 4.68 145.404H9.02V144.424H9.58V145.404H10.84L11.68 146.104V146.664H9.58V148.344H9.02V146.664H4.68C3.84 146.664 3.42 146.991 3.42 147.644C3.42 147.868 3.44333 148.055 3.49 148.204C3.53667 148.363 3.60667 148.526 3.7 148.694L3.42 148.834C3.26133 148.62 3.126 148.382 3.014 148.12C2.91133 147.859 2.86 147.514 2.86 147.084ZM2.86 152.571C2.86 151.936 3.00933 151.386 3.308 150.919C3.616 150.452 4.03133 150.098 4.554 149.855C5.07667 149.612 5.65533 149.491 6.29 149.491C6.92467 149.491 7.50333 149.612 8.026 149.855C8.54867 150.098 8.95933 150.452 9.258 150.919C9.566 151.386 9.72 151.936 9.72 152.571C9.72 153.206 9.566 153.756 9.258 154.223C8.95933 154.69 8.54867 155.044 8.026 155.287C7.50333 155.53 6.92467 155.651 6.29 155.651C5.65533 155.651 5.07667 155.53 4.554 155.287C4.03133 155.044 3.616 154.69 3.308 154.223C3.00933 153.756 2.86 153.206 2.86 152.571ZM3.42 152.571C3.42 152.916 3.546 153.22 3.798 153.481C4.05 153.752 4.39533 153.957 4.834 154.097C5.27267 154.246 5.758 154.321 6.29 154.321C6.822 154.321 7.30733 154.246 7.746 154.097C8.18467 153.957 8.53 153.752 8.782 153.481C9.034 153.22 9.16 152.916 9.16 152.571C9.16 152.226 9.034 151.918 8.782 151.647C8.53 151.386 8.18467 151.18 7.746 151.031C7.30733 150.891 6.822 150.821 6.29 150.821C5.758 150.821 5.27267 150.891 4.834 151.031C4.39533 151.18 4.05 151.386 3.798 151.647C3.546 151.918 3.42 152.226 3.42 152.571ZM7.9 157.503C8.376 157.503 8.726 157.437 8.95 157.307C9.18333 157.176 9.3 156.915 9.3 156.523V156.243H9.58V157.503C9.58 157.857 9.52867 158.123 9.426 158.301C9.33267 158.487 9.174 158.618 8.95 158.693V158.763C9.16467 158.931 9.34667 159.169 9.496 159.477C9.64533 159.785 9.72 160.177 9.72 160.653C9.72 161.455 9.39333 162.076 8.74 162.515C8.096 162.953 7.27933 163.173 6.29 163.173C5.29133 163.173 4.47 162.944 3.826 162.487C3.182 162.039 2.86 161.381 2.86 160.513C2.86 160.158 2.89733 159.845 2.972 159.575C3.04667 159.304 3.14933 159.033 3.28 158.763H0.34V157.503H7.9ZM3.42 160.093C3.42 160.69 3.68133 161.129 4.204 161.409C4.72667 161.698 5.422 161.843 6.29 161.843C7.14867 161.843 7.83933 161.707 8.362 161.437C8.894 161.166 9.16 160.765 9.16 160.233C9.16 159.607 8.88 159.117 8.32 158.763H3.84C3.70933 159.043 3.60667 159.285 3.532 159.491C3.45733 159.696 3.42 159.897 3.42 160.093Z" fill="#B98B4B"/>
</svg>
